<svg width="40" height="41" viewBox="0 0 40 41" fill="none" xmlns="http://www.w3.org/2000/svg">
<path d="M25.8333 23.9167H24.5167L24.05 23.4554C25.6833 21.5079 26.6667 18.9796 26.6667 16.2292C26.6667 10.0963 21.8167 5.125 15.8333 5.125C9.85 5.125 5 10.0963 5 16.2292C5 22.3621 9.85 27.3333 15.8333 27.3333C18.5167 27.3333 20.9833 26.3254 22.8833 24.6513L23.3333 25.1296V26.4792L31.6667 35.0037L34.15 32.4583L25.8333 23.9167ZM15.8333 23.9167C11.6833 23.9167 8.33333 20.4829 8.33333 16.2292C8.33333 11.9754 11.6833 8.54167 15.8333 8.54167C19.9833 8.54167 23.3333 11.9754 23.3333 16.2292C23.3333 20.4829 19.9833 23.9167 15.8333 23.9167Z" fill="black"/>
</svg>
